<?xml version="1.0" standalone="no"?><!DOCTYPE svg PUBLIC "-//W3C//DTD SVG 1.1//EN" "http://www.w3.org/Graphics/SVG/1.1/DTD/svg11.dtd"><svg t="1669102550298" class="icon" viewBox="0 0 1024 1024" version="1.1" xmlns="http://www.w3.org/2000/svg" p-id="5236" width="30" height="30" xmlns:xlink="http://www.w3.org/1999/xlink"><path d="M825.78353882 775.40820313l-115.16322327-113.06085206c36.68211365-48.56959534 58.6958313-108.83015442 58.6958313-174.38928222 0-160.13616943-129.78712463-289.95295716-289.94924927-289.95295716-160.14729309 0-289.95666504 129.81678772-289.95666503 289.95295716 0 160.16583252 129.80566406 289.9677887 289.95666503 289.9677887 73.78692627 0 140.94415283-27.79801941 192.11297607-73.18624878l115.32637025 113.21287536c11.32759094 11.12736511 29.23297119 10.65646362 40.00808716-1.06787109 10.74916076-11.7280426 10.2967987-30.31196594-1.03079224-41.47640991z m-346.39810181-48.6326294c-131.88208008 0-238.78042602-106.91688537-238.78042602-238.79896545 0-131.86724854 106.90205383-238.7878418 238.78042602-238.7878418 131.87095643 0 238.78042602 106.91688537 238.78042603 238.7878418 0 131.88208008-106.90946961 238.79896545-238.78042603 238.79896545z" p-id="5237" fill="#C7C7C7"></path></svg>